<?xml version="1.0"?>
<svg version="1.1" xmlns="http://www.w3.org/2000/svg" width="400px" height="200px" style=""><path fill="#" d="M139.9228515625,112.626953125q-0.0146484375-0.439453125-0.0146484375-0.87890625q0-1.376953125,0.146484375-2.7685546875q0.17578125-1.845703125,0.234375-3.6328125q0.05859375-2.0947265625,0.17578125-4.3505859375q0.0732421875-1.23046875,0.0732421875-2.431640625q0-0.9814453125-0.0439453125-1.9482421875q0.146484375-0.3369140625,0.38818359375-0.4541015625t0.60791015625-0.1171875q0.17578125,0,0.37353515625,0.029296875t0.34423828125,0.146484375q0.205078125,0.029296875,0.50537109375,0.05859375t0.46142578125,0.17578125q0.05859375,0.087890625,0.30029296875,0.6005859375t0.5712890625,1.2451171875t0.6884765625,1.58935546875t0.6884765625,1.6259765625t0.5712890625,1.35498046875t0.30029296875,0.732421875q1.376953125-2.490234375,2.6953125-5.11962890625t2.8857421875-4.95849609375q0.146484375-0.205078125,0.50537109375-0.30029296875t0.59326171875-0.09521484375q0.6298828125,0,0.91552734375,0.30029296875t0.37353515625,0.76904296875q0.05859375,0.29296875,0.0732421875,0.6298828125q0.0146484375,0.17578125-0.0146484375,0.3662109375q-0.05859375,0.5419921875-0.05859375,1.025390625q0,3.4130859375-0.234375,6.77490234375t-0.4248046875,6.78955078125q-0.029296875,0.703125-0.029296875,1.46484375t0.029296875,1.58203125q0.0146484375,0.29296875,0.0146484375,0.5712890625q0,1.2890625-0.2197265625,2.40234375q-0.205078125,0.3369140625-0.673828125,0.4248046875t-0.791015625,0.087890625q-0.6884765625,0-1.318359375-0.322265625l-0.1611328125-0.1904296875l-0.05859375-0.234375t-0.029296875-0.234375q0-2.1240234375,0.15380859375-4.27734375t0.34423828125-4.29931640625t0.40283203125-4.28466796875t0.35888671875-4.27734375q-0.8642578125,1.435546875-1.67724609375,2.92236328125t-1.53076171875,3.02490234375q-0.263671875,0.6005859375-0.50537109375,1.2890625t-0.57861328125,1.23046875q-0.17578125,0.263671875-0.59326171875,0.322265625t-0.72509765625,0.05859375q-0.29296875,0-0.60791015625-0.1025390625t-0.43212890625-0.439453125q-0.5419921875-1.6552734375-1.1572265625-3.2373046875t-1.2451171875-3.2080078125q0,1.083984375,0.0439453125,2.80517578125t0.0439453125,3.56689453125t-0.05859375,3.5302734375t-0.2783203125,2.666015625q-0.05859375,0.3662109375-0.47607421875,0.4541015625t-0.72509765625,0.087890625q-0.234375,0-0.44677734375-0.029296875t-0.41748046875-0.1171875z M157.02739257812,109.814453125q0-0.8349609375,0.21240234375-1.72119140625t0.673828125-1.5966796875t1.16455078125-1.1572265625t1.69921875-0.44677734375q0.7470703125,0,1.57470703125,0.25634765625t1.51611328125,0.732421875t1.12060546875,1.16455078125t0.43212890625,1.5380859375q0,1.025390625-0.37353515625,1.9482421875t-1.04736328125,1.64794921875t-1.57470703125,1.142578125t-1.95556640625,0.41748046875q-0.8642578125,0-1.5087890625-0.31494140625t-1.07666015625-0.84228515625t-0.64453125-1.2451171875t-0.21240234375-1.5234375z M159.18071289062,109.78515625q0,0.263671875,0.08056640625,0.7763671875t0.24169921875,1.00341796875t0.41748046875,0.849609375t0.62255859375,0.32958984375q0.7763671875-0.087890625,1.28173828125-0.50537109375t0.8203125-1.01806640625t0.439453125-1.3037109375t0.12451171875-1.3330078125q0-0.8056640625-0.31494140625-1.34765625t-1.03271484375-0.87890625q0,0.029296875,0.029296875,0.029296875t0.029296875-0.029296875l-0.3662109375-0.087890625q-0.146484375-0.05859375-0.35888671875-0.1318359375t-0.41748046875-0.322265625q-0.5712890625,0.205078125-0.88623046875,0.52734375t-0.47607421875,0.78369140625t-0.19775390625,1.10595703125t-0.03662109375,1.552734375z M167.52548828125,104.0869140625q0-0.1171875,0.13916015625-0.21240234375t0.31494140625-0.13916015625t0.35888671875-0.05859375t0.27099609375-0.0146484375q0.6591796875,0,1.1279296875,0.5859375t0.81298828125,1.50146484375t0.5859375,2.021484375t0.46142578125,2.20458984375t0.43212890625,2.01416015625t0.47607421875,1.41357421875q0.4541015625-0.8935546875,0.82763671875-2.1533203125t0.6884765625-2.607421875t0.556640625-2.65869140625t0.38818359375-2.29248046875q0.05859375-0.263671875,0.3662109375-0.32958984375t0.5126953125-0.06591796875q0.3369140625,0,0.5859375,0.09521484375t0.2490234375,0.41748046875q0,0.5419921875-0.1318359375,1.47216796875t-0.35888671875,2.08740234375t-0.52734375,2.373046875t-0.64453125,2.30712890625t-0.7177734375,1.93359375t-0.73974609375,1.19384765625q-0.17578125,0.205078125-0.54931640625,0.28564453125t-0.62255859375,0.08056640625q-0.8642578125,0-1.435546875-0.4541015625l0,0.029296875q-0.8935546875-0.8349609375-1.318359375-2.0361328125t-0.615234375-2.5048828125t-0.34423828125-2.5927734375t-0.52001953125-2.34375q-0.05859375-0.1171875-0.146484375-0.34423828125t-0.205078125-0.4541015625t-0.19775390625-0.43212890625t-0.08056640625-0.322265625z M179.07827148437,110.13671875q0-1.025390625,0.22705078125-2.4169921875t0.76904296875-2.63671875t1.42822265625-2.11669921875t2.23388671875-0.87158203125q1.259765625,0,1.8896484375,0.72509765625t0.6298828125,1.95556640625q0,0.8056640625-0.30029296875,1.76513671875t-0.85693359375,1.81640625t-1.318359375,1.42822265625t-1.69921875,0.5712890625l-0.380859375-0.029296875q0,0.3955078125,0.1171875,1.06201171875t0.34423828125,1.32568359375t0.5859375,1.1572265625t0.87158203125,0.498046875q0.7470703125,0,1.435546875-0.6005859375t1.3037109375-1.3330078125t1.142578125-1.3330078125t0.966796875-0.6005859375q0.234375,0,0.4833984375,0.0732421875t0.2783203125,0.41015625q0,0.205078125-0.10986328125,0.3369140625t-0.19775390625,0.29296875q-0.4541015625,0.7763671875-0.98876953125,1.4794921875t-1.20849609375,1.2744140625t-1.47216796875,0.90087890625t-1.76513671875,0.32958984375q-1.259765625,0-2.0947265625-0.44677734375t-1.34765625-1.201171875t-0.73974609375-1.7431640625t-0.22705078125-2.07275390625z M181.70034179687,109.0234375l0.41015625,0.3662109375q0.29296875,0.263671875,0.5859375,0.1171875t0.52734375-0.53466796875t0.43212890625-0.95947265625t0.3515625-1.171875t0.22705078125-1.171875t0.0732421875-0.9521484375l0-0.498046875t-0.0439453125-0.52734375t-0.15380859375-0.41748046875t-0.34423828125-0.21240234375q-0.0732421875-0.0146484375-0.1318359375-0.0146484375q-0.498046875,0-0.849609375,0.6298828125q-0.380859375,0.703125-0.615234375,1.70654296875t-0.3369140625,2.05810546875t-0.1318359375,1.58203125z"/><path fill="#" d="M186.8935546875,113.9453125q0.6298828125-2.8564453125,1.81640625-5.4638671875t2.4462890625-5.21484375q-0.6884765625-2.314453125-1.435546875-4.73876953125t-1.8017578125-4.59228515625q-0.1171875-0.087890625-0.24169921875-0.2197265625t-0.12451171875-0.29296875q0-0.205078125,0.16845703125-0.3369140625t0.3955078125-0.21240234375t0.46875-0.10986328125t0.38818359375-0.029296875q1.23046875,0,1.7724609375,1.142578125q0.6005859375,1.2890625,1.12060546875,2.64404296875t1.00341796875,2.70263671875q0.17578125-0.3955078125,0.41748046875-1.0693359375t0.5126953125-1.4208984375t0.6005859375-1.51611328125t0.7177734375-1.39892578125t0.85693359375-1.01806640625t1.0107421875-0.38818359375t0.703125,0.1025390625t0.1318359375,0.28564453125t-0.19775390625,0.40283203125t-0.25634765625,0.46875q-0.263671875,0.6298828125-0.63720703125,1.70654296875t-0.82763671875,2.32177734375t-0.94482421875,2.5341796875t-1.00341796875,2.314453125q1.0546875,3.45703125,1.7431640625,6.97998046875t1.58203125,7.02392578125q0.087890625,0.3369140625,0.27099609375,0.71044921875t0.18310546875,0.71044921875q0,0.205078125-0.19775390625,0.322265625t-0.4541015625,0.19775390625t-0.50537109375,0.10986328125t-0.41015625,0.029296875q-0.7763671875,0-1.20849609375-0.34423828125t-0.6884765625-0.87158203125t-0.3662109375-1.1572265625t-0.19775390625-1.23046875q-0.3662109375-2.0654296875-0.76904296875-4.12353515625t-0.90087890625-4.12353515625q-0.4541015625,1.025390625-0.76904296875,1.904296875t-0.5859375,1.72119140625t-0.52734375,1.69921875t-0.57861328125,1.83837890625q-0.146484375,0.4248046875-0.556640625,0.5126953125t-0.76171875,0.087890625q-0.3662109375,0-0.78369140625-0.087890625t-0.57861328125-0.5126953125z M200.84868164062,104.2333984375q0-0.6884765625,0.27099609375-1.01806640625t0.98876953125-0.32958984375q0.4248046875,0,0.79833984375,0.17578125t0.37353515625,0.7470703125q0.05859375,0.8349609375,0.05859375,1.75048828125t0.1611328125,1.73583984375q0.3662109375-0.6005859375,0.82763671875-1.201171875t1.01806640625-1.0693359375t1.2158203125-0.75439453125t1.435546875-0.28564453125q1.0546875,0,1.787109375,0.439453125t1.20849609375,1.142578125t0.6884765625,1.58935546875t0.21240234375,1.77978515625q0,1.376953125-0.41748046875,2.24853515625t-1.10595703125,1.36962890625t-1.56005859375,0.673828125t-1.75048828125,0.17578125q-0.7763671875,0-1.4501953125-0.30029296875t-0.9375-1.13525390625q0-0.234375,0.34423828125-0.29296875t0.49072265625-0.05859375q0.4833984375,0,0.7177734375,0.263671875q0.17578125,0.205078125,0.38818359375,0.41748046875t0.44677734375,0.21240234375q0.4541015625,0,0.9521484375-0.25634765625t0.91552734375-0.673828125t0.703125-0.98876953125t0.28564453125-1.171875q0-0.5126953125-0.087890625-1.2744140625t-0.30029296875-1.46484375t-0.5859375-1.2158203125t-0.94482421875-0.5126953125q-0.8642578125,0-1.56005859375,0.791015625t-1.1572265625,1.904296875t-0.7177734375,2.314453125t-0.25634765625,2.0068359375t0.1025390625,2.0361328125t0.21240234375,2.55615234375t0.21240234375,2.55615234375t0.1025390625,2.0361328125q0,0.205078125-0.16845703125,0.32958984375t-0.40283203125,0.19775390625t-0.47607421875,0.087890625t-0.35888671875,0.0146484375q-0.3955078125,0-0.82763671875-0.087890625t-0.59326171875-0.5419921875q-0.205078125-0.7177734375-0.380859375-2.04345703125t-0.31494140625-2.9296875t-0.24169921875-3.369140625t-0.17578125-3.40576171875t-0.10986328125-3.0029296875t-0.03662109375-2.16796875z M214.89169921875,105.4345703125q0-0.6005859375,0.21240234375-1.0107421875t0.90087890625-0.41015625q0.263671875,0,0.6591796875,0.08056640625t0.4541015625,0.40283203125q0.146484375,0.8642578125,0.1611328125,1.875t0.1025390625,1.904296875q0.3369140625-0.6591796875,0.8642578125-1.4208984375t1.201171875-1.40625t1.46484375-1.0693359375t1.611328125-0.4248046875q0.05859375,0,0.2197265625,0.0439453125t0.30029296875,0.12451171875t0.16845703125,0.18310546875t-0.1611328125,0.1904296875q-0.05859375,0.17578125-0.2490234375,0.21240234375t-0.3369140625,0.03662109375q-0.087890625,0-0.2783203125-0.0732421875q-1.083984375,0.5712890625-1.845703125,1.552734375t-1.2451171875,2.17529296875t-0.703125,2.51953125t-0.2197265625,2.58544921875q0,0.6298828125-0.28564453125,0.76171875t-0.91552734375,0.1318359375q-0.3369140625,0-0.71044921875-0.0732421875t-0.52001953125-0.46875q-0.263671875-0.8349609375-0.43212890625-1.9189453125t-0.25634765625-2.23388671875t-0.12451171875-2.26318359375t-0.03662109375-2.0068359375z M225.30190429687,110.13671875q0-1.025390625,0.22705078125-2.4169921875t0.76904296875-2.63671875t1.42822265625-2.11669921875t2.23388671875-0.87158203125q1.259765625,0,1.8896484375,0.72509765625t0.6298828125,1.95556640625q0,0.8056640625-0.30029296875,1.76513671875t-0.85693359375,1.81640625t-1.318359375,1.42822265625t-1.69921875,0.5712890625l-0.380859375-0.029296875q0,0.3955078125,0.1171875,1.06201171875t0.34423828125,1.32568359375t0.5859375,1.1572265625t0.87158203125,0.498046875q0.7470703125,0,1.435546875-0.6005859375t1.3037109375-1.3330078125t1.142578125-1.3330078125t0.966796875-0.6005859375q0.234375,0,0.4833984375,0.0732421875t0.2783203125,0.41015625q0,0.205078125-0.10986328125,0.3369140625t-0.19775390625,0.29296875q-0.4541015625,0.7763671875-0.98876953125,1.4794921875t-1.20849609375,1.2744140625t-1.47216796875,0.90087890625t-1.76513671875,0.32958984375q-1.259765625,0-2.0947265625-0.44677734375t-1.34765625-1.201171875t-0.73974609375-1.7431640625t-0.22705078125-2.07275390625z M227.92397460937,109.0234375l0.41015625,0.3662109375q0.29296875,0.263671875,0.5859375,0.1171875t0.52734375-0.53466796875t0.43212890625-0.95947265625t0.3515625-1.171875t0.22705078125-1.171875t0.0732421875-0.9521484375l0-0.498046875t-0.0439453125-0.52734375t-0.15380859375-0.41748046875t-0.34423828125-0.21240234375q-0.0732421875-0.0146484375-0.1318359375-0.0146484375q-0.498046875,0-0.849609375,0.6298828125q-0.380859375,0.703125-0.615234375,1.70654296875t-0.3369140625,2.05810546875t-0.1318359375,1.58203125z M237.5431640625,105.7568359375q0-0.6005859375,0.3515625-1.03271484375t0.85693359375-0.703125t1.10595703125-0.40283203125t1.11328125-0.1318359375q0.3955078125,0,1.0546875,0.1171875t1.2890625,0.3515625t1.09130859375,0.615234375t0.46142578125,0.8935546875q0,0.234375-0.17578125,0.41748046875t-0.3662109375,0.18310546875q-0.3955078125,0-0.7177734375-0.25634765625t-0.66650390625-0.5419921875t-0.75439453125-0.5419921875t-0.9228515625-0.25634765625t-0.93017578125,0.32958984375t-0.41748046875,0.87158203125q0,0.8935546875,0.6298828125,1.75048828125t1.38427734375,1.8017578125t1.38427734375,1.98486328125t0.6298828125,2.2998046875q0,0.5419921875-0.22705078125,0.91552734375t-0.6005859375,0.60791015625t-0.84228515625,0.35888671875t-0.908203125,0.12451171875q-0.4833984375,0-1.1279296875-0.22705078125t-1.2158203125-0.6005859375t-0.95947265625-0.87158203125t-0.38818359375-1.0400390625q0-0.263671875,0.37353515625-0.3369140625t0.54931640625-0.0732421875q0.087890625,0,0.27099609375,0.05859375t0.35888671875,0.1318359375t0.31494140625,0.1611328125t0.10986328125,0.1904296875q0.146484375,0.17578125,0.44677734375,0.52001953125t0.6005859375,0.556640625t0.52734375,0.15380859375t0.22705078125-0.6591796875q0-1.142578125-0.615234375-2.10205078125t-1.34033203125-1.875t-1.34033203125-1.81640625t-0.615234375-1.92626953125z M247.86547851562,105.7568359375q0-0.6005859375,0.3515625-1.03271484375t0.85693359375-0.703125t1.10595703125-0.40283203125t1.11328125-0.1318359375q0.3955078125,0,1.0546875,0.1171875t1.2890625,0.3515625t1.09130859375,0.615234375t0.46142578125,0.8935546875q0,0.234375-0.17578125,0.41748046875t-0.3662109375,0.18310546875q-0.3955078125,0-0.7177734375-0.25634765625t-0.66650390625-0.5419921875t-0.75439453125-0.5419921875t-0.9228515625-0.25634765625t-0.93017578125,0.32958984375t-0.41748046875,0.87158203125q0,0.8935546875,0.6298828125,1.75048828125t1.38427734375,1.8017578125t1.38427734375,1.98486328125t0.6298828125,2.2998046875q0,0.5419921875-0.22705078125,0.91552734375t-0.6005859375,0.60791015625t-0.84228515625,0.35888671875t-0.908203125,0.12451171875q-0.4833984375,0-1.1279296875-0.22705078125t-1.2158203125-0.6005859375t-0.95947265625-0.87158203125t-0.38818359375-1.0400390625q0-0.263671875,0.37353515625-0.3369140625t0.54931640625-0.0732421875q0.087890625,0,0.27099609375,0.05859375t0.35888671875,0.1318359375t0.31494140625,0.1611328125t0.10986328125,0.1904296875q0.146484375,0.17578125,0.44677734375,0.52001953125t0.6005859375,0.556640625t0.52734375,0.15380859375t0.22705078125-0.6591796875q0-1.142578125-0.615234375-2.10205078125t-1.34033203125-1.875t-1.34033203125-1.81640625t-0.615234375-1.92626953125z"/></svg>
